<?xml version="1.0" encoding="utf-8"?>
<!-- Generator: Adobe Illustrator 14.0.0, SVG Export Plug-In . SVG Version: 6.00 Build 43363)  -->
<!DOCTYPE svg PUBLIC "-//W3C//DTD SVG 1.1//EN" "http://www.w3.org/Graphics/SVG/1.1/DTD/svg11.dtd">
<svg version="1.1" id="Ebene_1" xmlns="http://www.w3.org/2000/svg" xmlns:xlink="http://www.w3.org/1999/xlink" x="0px" y="0px"
	 width="256px" height="256px" viewBox="0 0 256 256" enable-background="new 0 0 256 256" xml:space="preserve">
<g>
	<g>
		<path fill="#B80221" d="M151.432,92.335c0,18.959-6.883,39.422-20.645,61.387c-13.945,22.422-29.531,37.279-46.758,44.57
			c-0.184,0.09-0.502,0.137-0.957,0.137c-0.457,0-0.82-0.047-1.094-0.137C33.58,175.507,9.381,145.884,9.381,109.425
			c0-19.777,7.199-40.285,21.602-61.523c14.4-21.236,30.762-35.363,49.082-42.383c0.273-0.09,0.637-0.137,1.094-0.137
			c0.363,0.092,0.684,0.184,0.957,0.273C128.326,27.622,151.432,56.515,151.432,92.335z M118.482,109.972
			c0-31.535-18.914-57.057-56.738-76.563c-15.77,20.965-23.652,40.926-23.652,59.883c0,30.078,20.461,55.281,61.387,75.605
			C112.146,148.116,118.482,128.476,118.482,109.972z"/>
	</g>
	<g opacity="0.58">
		
			<radialGradient id="SVGID_1_" cx="101.02" cy="166.7656" r="114.5331" gradientTransform="matrix(1 0 0 0.4883 0 85.332)" gradientUnits="userSpaceOnUse">
			<stop  offset="0.4444" style="stop-color:#FFFFFF;stop-opacity:0"/>
			<stop  offset="0.9215" style="stop-color:#FFFFFF;stop-opacity:0.4637"/>
			<stop  offset="1" style="stop-color:#FFFFFF;stop-opacity:0.54"/>
		</radialGradient>
		<path fill="url(#SVGID_1_)" d="M151.432,92.335c0,18.959-6.883,39.422-20.645,61.387c-13.945,22.422-29.531,37.279-46.758,44.57
			c-0.184,0.09-0.502,0.137-0.957,0.137c-0.457,0-0.82-0.047-1.094-0.137C33.58,175.507,9.381,145.884,9.381,109.425
			c0-19.777,7.199-40.285,21.602-61.523c14.4-21.236,30.762-35.363,49.082-42.383c0.273-0.09,0.637-0.137,1.094-0.137
			c0.363,0.092,0.684,0.184,0.957,0.273C128.326,27.622,151.432,56.515,151.432,92.335z M118.482,109.972
			c0-31.535-18.914-57.057-56.738-76.563c-15.77,20.965-23.652,40.926-23.652,59.883c0,30.078,20.461,55.281,61.387,75.605
			C112.146,148.116,118.482,128.476,118.482,109.972z"/>
	</g>
	<g>
		<path fill="none" stroke="#BE1E2D" stroke-miterlimit="1" d="M151.432,92.335c0,18.959-6.883,39.422-20.645,61.387
			c-13.945,22.422-29.531,37.279-46.758,44.57c-0.184,0.09-0.502,0.137-0.957,0.137c-0.457,0-0.82-0.047-1.094-0.137
			C33.58,175.507,9.381,145.884,9.381,109.425c0-19.777,7.199-40.285,21.602-61.523c14.4-21.236,30.762-35.363,49.082-42.383
			c0.273-0.09,0.637-0.137,1.094-0.137c0.363,0.092,0.684,0.184,0.957,0.273C128.326,27.622,151.432,56.515,151.432,92.335z
			 M118.482,109.972c0-31.535-18.914-57.057-56.738-76.563c-15.77,20.965-23.652,40.926-23.652,59.883
			c0,30.078,20.461,55.281,61.387,75.605C112.146,148.116,118.482,128.476,118.482,109.972z"/>
	</g>
	<g opacity="0.58">
		<g>
			<path d="M151.427,91.893c-0.271,29.191-15.533,57.443-33.738,79.465c-7.762,9.39-17.016,17.583-27.717,23.458
				c-2.096,1.15-4.519,2.647-6.9,2.987c-2.444,0.349-6.714-2.864-8.853-3.954c-6.224-3.175-12.264-6.698-18.121-10.506
				c-18.145-11.797-34.284-27.67-42.081-48.209c-9.825-25.884-2.416-53.69,10.828-76.858c9.271-16.217,21.528-31.252,36.761-42.192
				c3.076-2.209,6.333-4.153,9.666-5.948c2.789-1.502,7.632-4.774,10.842-3.856c4.093,1.169,8.305,4.123,12.03,6.163
				c4.156,2.276,8.2,4.75,12.164,7.344c25.398,16.616,44.886,41.467,45.116,72.864c0.006,0.766,0.013-0.443,0.012-0.631
				c-0.14-18.96-6.826-36.268-18.946-50.804c-7.424-8.905-16.576-16.265-26.182-22.679c-5.318-3.551-10.887-6.715-16.541-9.695
				c-2.739-1.443-5.63-3.233-8.61-4.085c-2.101-0.6-6.801,2.574-8.648,3.49C48.298,20.256,30.256,44.338,18.981,68.271
				c-8.17,17.342-11.677,36.883-8.338,55.846c2.893,16.423,11.84,30.887,23.364,42.679c6.982,7.145,15.024,13.202,23.381,18.636
				c4.487,2.917,9.141,5.569,13.852,8.105c2.499,1.346,5.037,2.615,7.583,3.867c3.21,1.58,4.37,1.922,7.6,0.446
				c19.205-8.775,33.375-26.021,44.365-43.504c11.643-18.522,20.443-39.412,20.649-61.57
				C151.438,92.627,151.432,91.42,151.427,91.893z"/>
			<path d="M118.487,109.53c-0.167-20.478-8.562-38.535-22.893-52.992C86.65,47.516,75.877,40.431,64.77,34.379
				c-2.22-1.209-2.496-2.307-4.193-0.024c-1.144,1.538-2.236,3.113-3.326,4.689c-2.082,3.008-4.003,6.123-5.854,9.276
				c-3.654,6.228-6.661,12.817-9.032,19.633c-5.548,15.954-5.966,33.696,0.294,49.486c8.48,21.391,28.239,36.302,47.626,47.244
				c2.502,1.412,5.052,2.738,7.61,4.046c2.516,1.286,2.36-0.484,3.583-2.566c0.967-1.646,1.879-3.324,2.79-5.002
				c3.407-6.277,6.273-12.833,8.662-19.561c3.56-10.021,5.459-20.557,5.558-31.186c0.001-0.15-0.004-1.356-0.009-0.884
				c-0.136,14.714-4.102,28.798-10.116,42.143c-1.52,3.371-3.234,6.651-4.997,9.899c-0.919,1.694-1.897,3.356-2.874,5.018
				c-1.492,2.539-1.909,1.24-4.161,0.089c-6.354-3.248-12.505-6.88-18.44-10.84c-17.729-11.827-33.349-28.192-38.308-49.465
				c-3.012-12.919-1.004-26.287,3.298-38.659c2.198-6.321,5.211-12.339,8.515-18.146c1.809-3.179,3.81-6.246,5.854-9.276
				c1.072-1.588,2.2-3.139,3.326-4.689c0.542-1.808,1.439-2.066,2.691-0.776c1,0.527,1.994,1.063,2.984,1.608
				c20.266,11.042,39.053,26.8,47.662,48.766c3.14,8.012,4.495,16.636,4.565,25.211C118.482,110.886,118.488,109.68,118.487,109.53z
				"/>
		</g>
	</g>
</g>
<g>
	<g>
		<path fill="#EC632B" d="M248.391,70.246c0,0.751-5.43,5.171-16.285,13.262c0-0.748,0.074,2.137,0.225,8.656
			c0.15,5.245,0.15,9.367,0,12.364c-0.221,4.346-0.662,6.707-1.326,7.08l-23.827,13.558c11.753,4.568,20.962,11.343,27.624,20.328
			c7.037,9.357,10.557,20.213,10.557,32.566c0,24.631-16.135,45.22-48.402,61.764c-9.434,4.791-15.199,7.3-17.295,7.524h-1.123
			c-1.199,0.149-1.797-0.563-1.797-2.136c0-0.824,0.373-1.461,1.123-1.91c13.4-8.689,23.32-16.557,29.761-23.599
			c9.883-10.714,14.824-22.027,14.824-33.938c0-10.413-4.01-20.379-12.028-29.893c-8.02-9.515-17.239-15.209-27.656-17.082
			l-5.35,3.214v52.743c0,0.676-13.252,10.984-39.756,30.926c-0.375,0.299-0.824,0.449-1.348,0.449c-1.424,0-2.134-0.75-2.134-2.248
			c0-0.449,5.615-9.289,16.846-26.523V98.905c-15.049-8.616-22.573-13.299-22.573-14.049c0-0.974,3.032-4.027,9.097-9.16
			c6.064-5.131,9.546-7.698,10.444-7.698l1.123,0.337c5.166,3.071,10.332,6.103,15.498,9.097c8.535,5.242,12.803,8.423,12.803,9.546
			v42.451l27.627-15.271c0,0.898-0.076-2.396-0.225-9.883c-0.15-5.914-0.15-10.557,0-13.928c0.225-4.866,0.786-7.449,1.685-7.749
			c26.128-9.732,39.419-14.6,39.868-14.6C247.717,67.998,248.391,68.748,248.391,70.246z"/>
	</g>
	<g>
		<path fill="none" stroke="#EE4036" d="M248.391,70.246c0,0.751-5.43,5.171-16.285,13.262c0-0.748,0.074,2.137,0.225,8.656
			c0.15,5.245,0.15,9.367,0,12.364c-0.221,4.346-0.662,6.707-1.326,7.08l-23.827,13.558c11.753,4.568,20.962,11.343,27.624,20.328
			c7.037,9.357,10.557,20.213,10.557,32.566c0,24.631-16.135,45.22-48.402,61.764c-9.434,4.791-15.199,7.3-17.295,7.524h-1.123
			c-1.199,0.149-1.797-0.563-1.797-2.136c0-0.824,0.373-1.461,1.123-1.91c13.4-8.689,23.32-16.557,29.761-23.599
			c9.883-10.714,14.824-22.027,14.824-33.938c0-10.413-4.01-20.379-12.028-29.893c-8.02-9.515-17.239-15.209-27.656-17.082
			l-5.35,3.214v52.743c0,0.676-13.252,10.984-39.756,30.926c-0.375,0.299-0.824,0.449-1.348,0.449c-1.424,0-2.134-0.75-2.134-2.248
			c0-0.449,5.615-9.289,16.846-26.523V98.905c-15.049-8.616-22.573-13.299-22.573-14.049c0-0.974,3.032-4.027,9.097-9.16
			c6.064-5.131,9.546-7.698,10.444-7.698l1.123,0.337c5.166,3.071,10.332,6.103,15.498,9.097c8.535,5.242,12.803,8.423,12.803,9.546
			v42.451l27.627-15.271c0,0.898-0.076-2.396-0.225-9.883c-0.15-5.914-0.15-10.557,0-13.928c0.225-4.866,0.786-7.449,1.685-7.749
			c26.128-9.732,39.419-14.6,39.868-14.6C247.717,67.998,248.391,68.748,248.391,70.246z"/>
	</g>
	<g opacity="0.58">
		<g>
			<path d="M248.391,69.621c-0.384,1.375-2.682,2.731-3.693,3.569c-4.076,3.378-8.352,6.526-12.592,9.693
				c0.001,0.388,0.002,0.776,0.003,1.165c-0.163,8.436,1.193,16.997-0.373,25.361c-0.431,2.299-3.659,3.241-5.455,4.263
				c-6.368,3.623-12.735,7.247-19.104,10.87c-0.051,0.029-0.031,1.237,0,1.25c14.444,5.787,26.419,15.556,33.272,29.714
				c6.995,14.449,6.206,31.717-0.828,45.931c-6.097,12.32-16.868,21.761-28.098,29.3c-7.063,4.743-14.666,8.636-22.338,12.286
				c-2.438,1.16-11.658,6.639-12.445,1.565c0,0.417,0,0.833,0,1.25c0.73-2.854,5.208-4.6,7.533-6.187
				c2.896-1.977,5.729-4.044,8.527-6.157c4.959-3.744,9.69-7.802,14-12.28c8.82-9.166,14.953-20.518,15.623-33.359
				c1.096-20.982-14.592-41.536-34.097-48.288c-1.522-0.526-4.663-1.941-6.12-1.066c-1.412,0.849-2.824,1.697-4.236,2.546
				c-0.731,0.439-0.563,0.747-0.563,1.552c0,5.365,0,10.73,0,16.096c0,7.94,0,15.881,0,23.822c0,2.835,0,5.671,0,8.507
				c0,0.861,0,1.724,0,2.585c0,0.557-0.308,1.544-0.01,0.567c-0.305,0.997-2.36,2.173-3.102,2.781
				c-3.065,2.519-6.212,4.938-9.351,7.365c-4.732,3.659-9.497,7.28-14.264,10.896c-3.298,2.501-6.603,4.994-9.907,7.485
				c-1.916,1.444-6.004,4.939-6.599,0.548c0,0.417,0,0.833,0,1.25c0.316-1.257,1.453-2.57,2.121-3.647
				c2.336-3.767,4.749-7.486,7.152-11.21c1.485-2.303,2.978-4.601,4.47-6.898c0.708-1.091,3.095-3.683,3.107-4.95
				c0.005-0.497,0.001-0.994,0.001-1.49c0-9.878,0-19.756,0-29.635c0-22.588,0-45.176,0-67.764c0-0.058,0.047-0.595-0.006-0.625
				c-5.537-3.175-11.068-6.364-16.504-9.71c-1.36-0.837-5.533-2.617-6.069-4.338c0,0.417,0,0.833,0,1.25
				c0.332-1.506,2.062-2.812,3.096-3.827c2.777-2.729,5.822-5.203,8.818-7.685c2.072-1.718,4.18-3.44,6.469-4.865
				c1.88-1.17,3.771,0.74,5.381,1.693c6.783,4.017,13.686,7.837,20.2,12.287c1.6,1.092,3.231,2.239,4.551,3.669
				c0.631,0.684,0.444,0.049,0.444,1.273c0,13.801,0,27.601,0,41.402c0,0.051,0.045,0.604,0.006,0.625
				c9.209-5.09,18.418-10.181,27.627-15.271c-0.002-0.355-0.003-0.711-0.005-1.067c0.111-9.61-1.865-19.824,0.597-29.192
				c0.707-2.693,7.324-3.704,9.653-4.57c3.928-1.46,7.856-2.917,11.787-4.37c5.057-1.87,10.114-3.738,15.188-5.562
				c2.194-0.789,5.652-2.858,6.129,0.849C248.338,70.462,248.443,70.032,248.391,69.621c-0.556-4.322-6.542-0.704-8.878,0.144
				c-9.223,3.347-18.414,6.777-27.609,10.197c-1.702,0.633-4.966,1.096-6.013,2.664c-0.922,1.38-0.838,3.817-0.975,5.378
				c-0.22,2.515-0.217,5.067-0.217,7.591c0,6.348-0.458,13.033,0.34,19.324c-0.007-0.054,0.004-0.13,0.005-0.183
				c0-0.046,0.001-0.091,0.002-0.137c0.001-0.115-0.078-1.026-0.005-1.067c-4.893,2.704-9.784,5.409-14.677,8.113
				c-3.087,1.707-6.175,3.414-9.263,5.12c-1.151,0.637-3.682,1.812-3.682,2.392c0-12.949,0-25.899,0-38.849
				c0-3.833,0.164-4.613-3.207-7.185c-4.94-3.771-10.449-6.799-15.801-9.928c-3.106-1.816-6.204-3.649-9.299-5.486
				c-1.346-0.799-2.507,0.264-3.592,1c-4.982,3.382-9.604,7.572-13.977,11.694c-1.255,1.183-3.102,2.582-3.102,4.452
				c0,3.049,9.081,6.798,11.185,8.051c1.474,0.878,11.389,5.738,11.389,6.328c0,1.228,0,2.457,0,3.685c0,5.363,0,10.725,0,16.088
				c0,15.888,0,31.774,0,47.662c0,10.118,0,20.235,0,30.354c0,0.771-1.705,2.332-2.098,2.935c-1.828,2.809-3.65,5.621-5.469,8.436
				c-2.532,3.918-5.062,7.839-7.521,11.803c-1.13,1.823-3.216,4.729-0.553,6.412c2.04,1.29,6.908-3.793,8.388-4.909
				c2.738-2.065,5.473-4.136,8.206-6.208c4.631-3.513,9.252-7.04,13.851-10.596c3.7-2.861,8.551-5.711,11.529-9.395
				c0.883-1.092,0.069-5.652,0.069-6.885c0-7.405,0-14.81,0-22.215c0-6.89,0-13.78,0-20.67c0-1.233,0-2.468,0-3.701
				c0,1.028,2.897-1.144,3.461-1.482c2.305-1.385,3.373-0.883,6.077-0.151c12.776,3.452,23,13.711,29.597,24.787
				c8.098,13.597,7.002,29.551-0.695,42.982c-5.843,10.197-15.135,18.096-24.389,25.084c-2.355,1.778-4.772,3.473-7.197,5.152
				c-2.324,1.61-6.799,3.317-7.533,6.187c-0.087,0.339-0.054,0.904,0,1.25c0.561,3.612,4.474,1.833,6.826,0.92
				c5.672-2.205,11.146-5.096,16.511-7.949c10.386-5.524,20.189-12.3,28.422-20.738c10.678-10.946,17.062-25.177,16.861-40.55
				c-0.322-24.771-15.602-43.933-38.184-52.979c0,0.417,0,0.833,0,1.25c7.74-4.404,15.479-8.808,23.22-13.212
				c3.154-1.795,2.036-9.808,2.052-13.074c0.026-5.553,0.022-11.173-0.339-16.715c-0.006-0.085-0.006,0.104-0.005,0.063
				c-0.001,0.038-0.001,0.077-0.002,0.115c-0.003,0.16,0.106,1.087,0.003,1.165c3.977-2.971,7.944-5.955,11.816-9.062
				c1.183-0.949,4.023-2.605,4.469-4.201C248.499,70.482,248.283,70.005,248.391,69.621z"/>
		</g>
	</g>
</g>
</svg>
