<?xml version="1.0" encoding="utf-8"?>
<!-- Generator: Adobe Illustrator 14.0.0, SVG Export Plug-In . SVG Version: 6.00 Build 43363)  -->
<!DOCTYPE svg PUBLIC "-//W3C//DTD SVG 1.1//EN" "http://www.w3.org/Graphics/SVG/1.1/DTD/svg11.dtd">
<svg version="1.1" id="Ebene_1" xmlns="http://www.w3.org/2000/svg" xmlns:xlink="http://www.w3.org/1999/xlink" x="0px" y="0px"
	 width="256px" height="256px" viewBox="0 0 256 256" enable-background="new 0 0 256 256" xml:space="preserve">
<g>
	<g>
		<path fill="#B80221" d="M69.417,86.255c0,8.125-2.95,16.895-8.848,26.309c-5.977,9.609-12.656,15.977-20.039,19.102
			c-0.079,0.038-0.215,0.059-0.41,0.059c-0.196,0-0.352-0.021-0.469-0.059C18.909,121.9,8.538,109.205,8.538,93.58
			c0-8.476,3.085-17.265,9.258-26.367c6.171-9.101,13.184-15.156,21.035-18.164c0.117-0.039,0.273-0.059,0.469-0.059
			c0.156,0.04,0.293,0.079,0.41,0.117C59.515,58.521,69.417,70.904,69.417,86.255z M55.296,93.814
			c0-13.515-8.106-24.453-24.316-32.813c-6.758,8.985-10.137,17.54-10.137,25.664c0,12.891,8.769,23.692,26.309,32.402
			C52.581,110.162,55.296,101.744,55.296,93.814z"/>
		<path fill="#B80221" d="M125.491,74.009c0,5.704-3.633,10.84-10.898,15.41c-5.587,3.477-11.875,5.958-18.867,7.441l-0.234,0.059
			c-0.782,0-1.172-0.39-1.172-1.172c0-0.429,0.273-0.781,0.823-1.055c0.94-0.352,2.312-0.898,4.114-1.641
			c9.169-4.102,13.754-8.945,13.754-14.531c0-5.468-4.622-11.367-13.865-17.695l-7.521,4.98v49.102c0,0.391-0.156,0.703-0.469,0.938
			l-20.156,15.118c-0.196,0.156-0.43,0.234-0.703,0.234c-0.743,0-1.113-0.391-1.113-1.172c0-0.195,2.91-4.766,8.73-13.711V65.162
			L66.78,58.775c-0.391-0.234-0.586-0.527-0.586-0.879c0-0.429,0.136-0.762,0.41-0.996c6.211-5.156,9.453-7.734,9.727-7.734
			c0.234,0,5.098,2.911,14.59,8.73c9.492-5.82,14.335-8.73,14.531-8.73c0.234,0,0.448,0.059,0.645,0.176
			C119.025,58.013,125.491,66.236,125.491,74.009z"/>
		<path fill="#B80221" d="M180.511,57.252c0,0.234-0.117,0.47-0.352,0.704c-6.525,6.451-9.945,9.676-10.258,9.676
			c-0.156,0-6.482-2.387-18.979-7.161c-7.188,7.696-11.682,14.982-13.478,21.857c2.93-4.257,4.59-6.387,4.98-6.387h31.465
			c0.741,0,1.113,0.372,1.113,1.113l-0.176,0.645c-4.961,7.54-7.656,11.309-8.086,11.309h-30.059
			c0.234,7.93,4.766,14.629,13.594,20.098c5.234,3.243,13.163,6.485,23.789,9.727c0.547,0.157,0.82,0.508,0.82,1.055
			c0,0.274-2.441,3.887-7.324,10.84c-0.234,0.313-0.489,0.469-0.762,0.469c-0.234,0-0.372,0-0.41,0
			c-11.133-2.383-20.177-6.133-27.129-11.25c-8.945-6.563-13.418-14.766-13.418-24.609c0-7.812,3.809-17.227,11.426-28.242
			c8.007-11.64,15.664-17.617,22.969-17.93c0.078,0,6.582,2.305,19.512,6.914C180.256,56.236,180.511,56.627,180.511,57.252z"/>
		<path fill="#B80221" d="M245.14,87.162c0,12.47-4.609,25.076-13.828,37.82c-1.055,1.486-2.716,3.518-4.98,6.099
			c-0.273,0.272-0.548,0.41-0.82,0.41c-0.782,0-1.172-0.392-1.172-1.174c0-0.155,0.038-0.332,0.117-0.527
			c5.586-12.706,8.379-24.317,8.379-34.834c0-14.113-4.884-25.06-14.648-32.84l-8.027,6.275v46.68c0,0.391-0.156,0.704-0.469,0.938
			l-20.273,15.248c-0.196,0.155-0.431,0.234-0.703,0.234c-0.742,0-1.113-0.392-1.113-1.174c0-0.234,2.93-4.846,8.789-13.837V65.115
			l-11.191-6.45c-0.391-0.196-0.586-0.489-0.586-0.88c0-0.43,0.137-0.763,0.41-0.997c6.249-5.198,9.512-7.798,9.785-7.798
			c0.234,0,5.156,2.969,14.766,8.906c0.39,0.234,0.586,0.782,0.586,1.641c9.336-7.031,14.141-10.547,14.414-10.547
			c0.234,0,0.469,0.098,0.703,0.293C238.519,59.877,245.14,72.503,245.14,87.162z"/>
	</g>
	<g opacity="0.58">
		
			<radialGradient id="SVGID_1_" cx="161.1738" cy="118.1548" r="163.6411" gradientTransform="matrix(1 0 0 0.4883 0 60.4584)" gradientUnits="userSpaceOnUse">
			<stop  offset="0.4444" style="stop-color:#FFFFFF;stop-opacity:0"/>
			<stop  offset="0.9215" style="stop-color:#FFFFFF;stop-opacity:0.4637"/>
			<stop  offset="1" style="stop-color:#FFFFFF;stop-opacity:0.54"/>
		</radialGradient>
		<path fill="url(#SVGID_1_)" d="M69.417,86.255c0,8.125-2.95,16.895-8.848,26.309c-5.977,9.609-12.656,15.977-20.039,19.102
			c-0.079,0.038-0.215,0.059-0.41,0.059c-0.196,0-0.352-0.021-0.469-0.059C18.909,121.9,8.538,109.205,8.538,93.58
			c0-8.476,3.085-17.265,9.258-26.367c6.171-9.101,13.184-15.156,21.035-18.164c0.117-0.039,0.273-0.059,0.469-0.059
			c0.156,0.04,0.293,0.079,0.41,0.117C59.515,58.521,69.417,70.904,69.417,86.255z M55.296,93.814
			c0-13.515-8.106-24.453-24.316-32.813c-6.758,8.985-10.137,17.54-10.137,25.664c0,12.891,8.769,23.692,26.309,32.402
			C52.581,110.162,55.296,101.744,55.296,93.814z"/>
		
			<radialGradient id="SVGID_2_" cx="161.1738" cy="118.1548" r="163.6411" gradientTransform="matrix(1 0 0 0.4883 0 60.4584)" gradientUnits="userSpaceOnUse">
			<stop  offset="0.4444" style="stop-color:#FFFFFF;stop-opacity:0"/>
			<stop  offset="0.9215" style="stop-color:#FFFFFF;stop-opacity:0.4637"/>
			<stop  offset="1" style="stop-color:#FFFFFF;stop-opacity:0.54"/>
		</radialGradient>
		<path fill="url(#SVGID_2_)" d="M125.491,74.009c0,5.704-3.633,10.84-10.898,15.41c-5.587,3.477-11.875,5.958-18.867,7.441
			l-0.234,0.059c-0.782,0-1.172-0.39-1.172-1.172c0-0.429,0.273-0.781,0.823-1.055c0.94-0.352,2.312-0.898,4.114-1.641
			c9.169-4.102,13.754-8.945,13.754-14.531c0-5.468-4.622-11.367-13.865-17.695l-7.521,4.98v49.102c0,0.391-0.156,0.703-0.469,0.938
			l-20.156,15.118c-0.196,0.156-0.43,0.234-0.703,0.234c-0.743,0-1.113-0.391-1.113-1.172c0-0.195,2.91-4.766,8.73-13.711V65.162
			L66.78,58.775c-0.391-0.234-0.586-0.527-0.586-0.879c0-0.429,0.136-0.762,0.41-0.996c6.211-5.156,9.453-7.734,9.727-7.734
			c0.234,0,5.098,2.911,14.59,8.73c9.492-5.82,14.335-8.73,14.531-8.73c0.234,0,0.448,0.059,0.645,0.176
			C119.025,58.013,125.491,66.236,125.491,74.009z"/>
		
			<radialGradient id="SVGID_3_" cx="161.1738" cy="118.1548" r="163.6411" gradientTransform="matrix(1 0 0 0.4883 0 60.4584)" gradientUnits="userSpaceOnUse">
			<stop  offset="0.4444" style="stop-color:#FFFFFF;stop-opacity:0"/>
			<stop  offset="0.9215" style="stop-color:#FFFFFF;stop-opacity:0.4637"/>
			<stop  offset="1" style="stop-color:#FFFFFF;stop-opacity:0.54"/>
		</radialGradient>
		<path fill="url(#SVGID_3_)" d="M180.511,57.252c0,0.234-0.117,0.47-0.352,0.704c-6.525,6.451-9.945,9.676-10.258,9.676
			c-0.156,0-6.482-2.387-18.979-7.161c-7.188,7.696-11.682,14.982-13.478,21.857c2.93-4.257,4.59-6.387,4.98-6.387h31.465
			c0.741,0,1.113,0.372,1.113,1.113l-0.176,0.645c-4.961,7.54-7.656,11.309-8.086,11.309h-30.059
			c0.234,7.93,4.766,14.629,13.594,20.098c5.234,3.243,13.163,6.485,23.789,9.727c0.547,0.157,0.82,0.508,0.82,1.055
			c0,0.274-2.441,3.887-7.324,10.84c-0.234,0.313-0.489,0.469-0.762,0.469c-0.234,0-0.372,0-0.41,0
			c-11.133-2.383-20.177-6.133-27.129-11.25c-8.945-6.563-13.418-14.766-13.418-24.609c0-7.812,3.809-17.227,11.426-28.242
			c8.007-11.64,15.664-17.617,22.969-17.93c0.078,0,6.582,2.305,19.512,6.914C180.256,56.236,180.511,56.627,180.511,57.252z"/>
		
			<radialGradient id="SVGID_4_" cx="161.1738" cy="118.1548" r="163.6411" gradientTransform="matrix(1 0 0 0.4883 0 60.4584)" gradientUnits="userSpaceOnUse">
			<stop  offset="0.4444" style="stop-color:#FFFFFF;stop-opacity:0"/>
			<stop  offset="0.9215" style="stop-color:#FFFFFF;stop-opacity:0.4637"/>
			<stop  offset="1" style="stop-color:#FFFFFF;stop-opacity:0.54"/>
		</radialGradient>
		<path fill="url(#SVGID_4_)" d="M245.14,87.162c0,12.47-4.609,25.076-13.828,37.82c-1.055,1.486-2.716,3.518-4.98,6.099
			c-0.273,0.272-0.548,0.41-0.82,0.41c-0.782,0-1.172-0.392-1.172-1.174c0-0.155,0.038-0.332,0.117-0.527
			c5.586-12.706,8.379-24.317,8.379-34.834c0-14.113-4.884-25.06-14.648-32.84l-8.027,6.275v46.68c0,0.391-0.156,0.704-0.469,0.938
			l-20.273,15.248c-0.196,0.155-0.431,0.234-0.703,0.234c-0.742,0-1.113-0.392-1.113-1.174c0-0.234,2.93-4.846,8.789-13.837V65.115
			l-11.191-6.45c-0.391-0.196-0.586-0.489-0.586-0.88c0-0.43,0.137-0.763,0.41-0.997c6.249-5.198,9.512-7.798,9.785-7.798
			c0.234,0,5.156,2.969,14.766,8.906c0.39,0.234,0.586,0.782,0.586,1.641c9.336-7.031,14.141-10.547,14.414-10.547
			c0.234,0,0.469,0.098,0.703,0.293C238.519,59.877,245.14,72.503,245.14,87.162z"/>
	</g>
	<g>
		<path fill="none" stroke="#BE1E2D" stroke-miterlimit="1" d="M69.417,86.255c0,8.125-2.95,16.895-8.848,26.309
			c-5.977,9.609-12.656,15.977-20.039,19.102c-0.079,0.038-0.215,0.059-0.41,0.059c-0.196,0-0.352-0.021-0.469-0.059
			C18.909,121.9,8.538,109.205,8.538,93.58c0-8.476,3.085-17.265,9.258-26.367c6.171-9.101,13.184-15.156,21.035-18.164
			c0.117-0.039,0.273-0.059,0.469-0.059c0.156,0.04,0.293,0.079,0.41,0.117C59.515,58.521,69.417,70.904,69.417,86.255z
			 M55.296,93.814c0-13.515-8.106-24.453-24.316-32.813c-6.758,8.985-10.137,17.54-10.137,25.664
			c0,12.891,8.769,23.692,26.309,32.402C52.581,110.162,55.296,101.744,55.296,93.814z"/>
		<path fill="none" stroke="#BE1E2D" stroke-miterlimit="1" d="M125.491,74.009c0,5.704-3.633,10.84-10.898,15.41
			c-5.587,3.477-11.875,5.958-18.867,7.441l-0.234,0.059c-0.782,0-1.172-0.39-1.172-1.172c0-0.429,0.273-0.781,0.823-1.055
			c0.94-0.352,2.312-0.898,4.114-1.641c9.169-4.102,13.754-8.945,13.754-14.531c0-5.468-4.622-11.367-13.865-17.695l-7.521,4.98
			v49.102c0,0.391-0.156,0.703-0.469,0.938l-20.156,15.118c-0.196,0.156-0.43,0.234-0.703,0.234c-0.743,0-1.113-0.391-1.113-1.172
			c0-0.195,2.91-4.766,8.73-13.711V65.162L66.78,58.775c-0.391-0.234-0.586-0.527-0.586-0.879c0-0.429,0.136-0.762,0.41-0.996
			c6.211-5.156,9.453-7.734,9.727-7.734c0.234,0,5.098,2.911,14.59,8.73c9.492-5.82,14.335-8.73,14.531-8.73
			c0.234,0,0.448,0.059,0.645,0.176C119.025,58.013,125.491,66.236,125.491,74.009z"/>
		<path fill="none" stroke="#BE1E2D" stroke-miterlimit="1" d="M180.511,57.252c0,0.234-0.117,0.47-0.352,0.704
			c-6.525,6.451-9.945,9.676-10.258,9.676c-0.156,0-6.482-2.387-18.979-7.161c-7.188,7.696-11.682,14.982-13.478,21.857
			c2.93-4.257,4.59-6.387,4.98-6.387h31.465c0.741,0,1.113,0.372,1.113,1.113l-0.176,0.645c-4.961,7.54-7.656,11.309-8.086,11.309
			h-30.059c0.234,7.93,4.766,14.629,13.594,20.098c5.234,3.243,13.163,6.485,23.789,9.727c0.547,0.157,0.82,0.508,0.82,1.055
			c0,0.274-2.441,3.887-7.324,10.84c-0.234,0.313-0.489,0.469-0.762,0.469c-0.234,0-0.372,0-0.41,0
			c-11.133-2.383-20.177-6.133-27.129-11.25c-8.945-6.563-13.418-14.766-13.418-24.609c0-7.812,3.809-17.227,11.426-28.242
			c8.007-11.64,15.664-17.617,22.969-17.93c0.078,0,6.582,2.305,19.512,6.914C180.256,56.236,180.511,56.627,180.511,57.252z"/>
		<path fill="none" stroke="#BE1E2D" stroke-miterlimit="1" d="M245.14,87.162c0,12.47-4.609,25.076-13.828,37.82
			c-1.055,1.486-2.716,3.518-4.98,6.099c-0.273,0.272-0.548,0.41-0.82,0.41c-0.782,0-1.172-0.392-1.172-1.174
			c0-0.155,0.038-0.332,0.117-0.527c5.586-12.706,8.379-24.317,8.379-34.834c0-14.113-4.884-25.06-14.648-32.84l-8.027,6.275v46.68
			c0,0.391-0.156,0.704-0.469,0.938l-20.273,15.248c-0.196,0.155-0.431,0.234-0.703,0.234c-0.742,0-1.113-0.392-1.113-1.174
			c0-0.234,2.93-4.846,8.789-13.837V65.115l-11.191-6.45c-0.391-0.196-0.586-0.489-0.586-0.88c0-0.43,0.137-0.763,0.41-0.997
			c6.249-5.198,9.512-7.798,9.785-7.798c0.234,0,5.156,2.969,14.766,8.906c0.39,0.234,0.586,0.782,0.586,1.641
			c9.336-7.031,14.141-10.547,14.414-10.547c0.234,0,0.469,0.098,0.703,0.293C238.519,59.877,245.14,72.503,245.14,87.162z"/>
	</g>
	<g opacity="0.58">
		<g>
			<path d="M69.414,85.716c-0.24,11.273-5.357,21.479-11.729,30.533c-2.633,3.742-5.77,7.094-9.282,10.018
				c-1.948,1.623-6.055,5.111-8.752,4.774c-1.866-0.233-4.406-2.198-6.055-3.097c-2.293-1.25-4.491-2.663-6.648-4.132
				c-3.442-2.343-6.569-5.108-9.389-8.165c-4.912-5.325-7.953-11.971-8.837-19.139c-1.464-11.875,5.102-23.721,12.06-32.754
				c2.781-3.611,6.078-6.779,9.713-9.516c1.875-1.412,6.747-5.212,9.215-4.507c4.296,1.228,8.778,4.654,12.405,7.189
				c3.354,2.343,6.375,5.12,9.073,8.188c5.318,6.047,8.089,13.676,8.226,21.687c0.001,0.063,0.01-0.83,0.006-1.079
				c-0.132-7.782-2.669-14.733-7.43-20.886c-2.758-3.564-6.261-6.507-9.875-9.159c-2.064-1.515-4.267-2.835-6.48-4.117
				c-1.7-0.985-4.792-3.382-6.804-3.13c-4.043,0.505-8.759,4.743-11.7,7.282c-4.583,3.958-8.207,8.972-11.386,14.082
				C11.299,76.934,8.532,85.13,8.532,93.58c0,17.156,12.374,28.697,26.517,36.406c1.476,0.805,3.742,2.554,5.481,2.306
				c1.872-0.268,4.144-2.124,5.683-3.141c4.571-3.022,8.239-7.289,11.473-11.652c6.574-8.872,11.497-19.539,11.734-30.704
				C69.425,86.545,69.415,85.653,69.414,85.716z"/>
			<path d="M55.299,93.274c-0.225-11.919-6.635-21.063-16.056-27.924c-1.261-0.918-2.593-1.736-3.918-2.555
				c-0.938-0.563-1.888-1.106-2.85-1.627c-1.242-1.288-2.126-1.025-2.654,0.79c-2.459,3.359-4.468,7.012-6.138,10.818
				c-1.919,4.373-2.847,9.128-2.847,13.89c0,9.584,4.671,17.367,11.699,23.62c2.641,2.35,5.619,4.306,8.625,6.147
				c1.438,0.881,2.932,1.67,4.421,2.462c1.322,1.329,2.175,1.04,2.557-0.866c0.624-1.082,1.217-2.18,1.781-3.294
				c3.308-6.32,5.228-13.252,5.38-20.381c0.005-0.25-0.005-1.142-0.006-1.079c-0.154,7.204-2.238,13.784-5.374,20.21
				c-0.564,1.114-1.158,2.212-1.781,3.294c-1.422,2.547-1.912,1.209-4.079,0.057c-2.826-1.502-5.514-3.241-8.118-5.097
				c-8.432-6.011-15.325-15.129-15.062-25.909c0.156-6.381,2.795-12.478,5.891-17.933c0.624-1.059,1.278-2.098,1.964-3.118
				c1.275-1.96,1.402-3.599,3.741-2.362c2.79,1.476,5.43,3.208,7.979,5.064c8.854,6.448,14.63,15.795,14.839,26.871
				C55.294,94.416,55.304,93.524,55.299,93.274z"/>
		</g>
		<g>
			<path d="M125.49,73.407c-0.351,7.657-6.167,12.544-12.308,16.236c-2.505,1.505-17.611,9.24-18.862,5.479c0,0.417,0,0.833,0,1.25
				c0.57-1.625,3.504-2.11,4.938-2.695c2.85-1.164,5.527-2.797,7.995-4.62c3.284-2.425,5.56-5.818,5.76-9.934
				c0.268-5.499-3.139-9.801-6.91-13.451c-2.12-2.051-4.549-3.781-6.957-5.472c-0.172-0.121-2.746,1.818-2.96,1.96
				c-0.844,0.559-4.56,2.239-4.566,3.33c-0.021,3.584-0.001,7.17-0.001,10.754c0,12.583,0,25.165,0,37.747
				c0,2.605-7.067,6.183-8.955,7.598c-2.936,2.202-5.872,4.404-8.807,6.605c-1.198,0.898-3.859,3.775-4.673,1.205
				c0,0.417,0,0.833,0,1.25c0.92-2.435,2.955-4.788,4.35-6.954c1.321-2.051,4.387-4.993,4.387-7.484c0-4.786,0-9.571,0-14.356
				c0-12.231,0-24.463,0-36.695c0-0.058,0.047-0.595-0.006-0.625c-3.428-1.967-9.518-3.965-11.719-7.266c0,0.417,0,0.833,0,1.25
				c1.221-2.965,5.931-5.571,8.503-7.586c1.13-0.885,1.345-1.345,2.567-0.661c2.617,1.465,5.163,3.065,7.724,4.622
				c1.98,1.204,3.956,2.415,5.932,3.625c0.521,0.319,6.333-3.872,7.169-4.38c2.263-1.377,4.521-2.77,6.824-4.078
				c1.948-1.106,6.905,4.038,8.421,5.265c5.913,4.787,11.877,11.277,12.154,19.284c-0.01-0.294,0.016-0.829,0.003-1.205
				c-0.384-11.116-11.07-18.999-19.396-24.69c-1.31-0.895-5.877,2.883-6.863,3.48c-2.777,1.681-5.545,3.378-8.313,5.075
				c-0.691,0.423-8.22-5.014-9.371-5.709c-0.869-0.525-4.498-3.495-5.556-2.838c-2.222,1.379-9.715,6.219-9.801,8.57
				c-0.125,3.439,6.102,5.27,8.583,6.694c1.019,0.584,2.037,1.168,3.056,1.753c-0.062-0.035,0.074-0.925,0.074,0.305
				c0,2.308,0,4.616,0,6.923c0,7.738,0,15.475,0,23.213c0,6.197,0,12.394,0,18.591c0,2.886-2.81,5.251-4.374,7.674
				c-0.993,1.538-4.281,5.031-4.352,6.976c-0.165,4.519,4.116,0.441,5.907-0.902c5.302-3.977,10.604-7.953,15.905-11.93
				c1.542-1.157,0.637-6.144,0.637-7.577c0-7.541,0-15.082,0-22.623c0-6.329,0-12.658,0-18.987c0-0.498,0-0.995,0-1.492
				c0,0.917,1.603-0.546,2.187-0.933c1.48-0.98,2.96-1.96,4.44-2.94c1.976-1.308,5.071,2.489,6.645,3.808
				c3.885,3.256,8.742,8.434,7.918,13.991c-0.784,5.289-6.283,8.772-10.518,11.112c-1.815,1.003-7.982,2.158-7.989,4.633
				c-0.01,3.477,4.427,1.199,6.524,0.604c10.054-2.85,24.106-9.596,24.655-21.574C125.51,74.236,125.476,73.701,125.49,73.407z"/>
		</g>
		<g>
			<path d="M180.511,56.627c-1.828,3.662-7.021,7.539-10.285,10.183c-0.903,0.731-4.756-1.431-5.648-1.768
				c-2.397-0.904-4.791-1.816-7.186-2.728c-1.576-0.6-3.151-1.201-4.727-1.802c-1.35-1.134-2.369-0.877-3.06,0.773
				c-0.835,0.931-1.649,1.88-2.442,2.847c-4.337,5.171-7.865,11.06-9.719,17.572c-0.091,0.317,0.178,0.994,0,1.25
				c1.615-2.327,3.17-6.387,6.332-6.387c3.815,0,7.631,0,11.446,0c4.331,0,8.662,0,12.993,0c1.698,0,6.125-0.869,6.787,1.113
				c0-0.417,0-0.833,0-1.25c-0.691,2.534-3.134,5.105-4.624,7.28c-1.052,1.536-2.099,3.369-3.511,4.616
				c-1.031,0.91-6.339,0.058-7.631,0.058c-7.519,0-15.036,0-22.555,0c-0.01,0-0.009,1.113-0.002,1.228
				c0.547,9.083,6.221,15.366,13.596,20.12c3.291,2.122,6.968,3.673,10.579,5.15c2.574,1.052,5.205,1.964,7.836,2.86
				c1.693,0.577,5.619,0.883,6.194,2.771c0-0.417,0-0.833,0-1.25c-0.42,1.188-1.429,2.319-2.124,3.347
				c-1.643,2.432-3.491,6.441-5.962,7.962c-1.57,0.966-8.577-2.105-10.332-2.667c-3.442-1.101-6.765-2.533-9.995-4.145
				c-14.504-7.235-23.996-20.884-18.972-37.424c2.221-7.311,6.507-13.972,10.857-20.169c4.151-5.914,9.237-11.649,15.823-14.857
				c3.319-1.617,5.692-1.663,8.942-0.517c2.374,0.837,4.745,1.681,7.116,2.524c2.337,0.831,9.658,2.112,10.271,4.559
				C180.413,57.488,180.609,57.021,180.511,56.627c-0.501-2.001-4.165-2.386-5.909-3.007c-2.646-0.942-5.29-1.883-7.936-2.822
				c-2.121-0.753-4.236-1.536-6.374-2.242c-2.975-0.983-7.991,2.388-10.233,3.922c-5.212,3.565-9.209,8.891-12.79,13.992
				c-9.452,13.463-16.374,30.312-6.596,45.439c6.003,9.286,17.212,14.501,27.361,17.748c2.742,0.877,5.548,1.54,8.355,2.165
				c1.667,0.371,4.147-4.728,4.985-5.938c0.871-1.258,3.499-3.894,3.516-5.554c0.009-0.945,0.103-1.547-0.825-2.122
				c-2.323-1.439-6.065-1.94-8.676-2.86c-2.902-1.023-5.753-2.184-8.564-3.433c-9.991-4.44-19.438-11.824-20.141-23.508
				c-0.001,0.409-0.001,0.818-0.002,1.228c8.071,0,16.143,0,24.214,0c1.595,0,5.229,0.788,6.433-0.519
				c1.771-1.924,3.162-4.307,4.621-6.462c0.996-1.472,3.047-3.407,3.059-5.282c0.01-1.747-0.822-2.054-2.471-2.054
				c-4.467,0-8.933,0-13.398,0c-4.604,0-9.207,0-13.812,0c-0.954,0-1.908,0-2.863,0c-1.508,0-4.342,5.409-5.021,6.387
				c0,0.417,0,0.833,0,1.25c1.877-6.593,5.467-12.254,9.719-17.572c1.187-1.484,2.477-2.884,3.759-4.286
				c0.173-0.189,4.539,1.732,4.979,1.9c2.891,1.102,5.782,2.202,8.677,3.296c0.976,0.369,4.648,2.474,5.648,1.768
				c1.181-0.834,2.212-1.972,3.255-2.962c2.212-2.099,5.68-4.516,7.03-7.221C180.679,57.541,180.346,56.957,180.511,56.627z"/>
		</g>
		<g>
			<path d="M245.137,86.622c-0.146,9.441-2.729,18.218-6.936,26.619c-2.097,4.188-4.703,8.133-7.468,11.904
				c-0.988,1.348-5.249,7.991-6.395,4.546c0,0.417,0,0.833,0,1.25c0.702-3.159,2.531-6.348,3.632-9.417
				c1.194-3.329,2.138-6.74,2.964-10.176c1.131-4.699,1.825-9.603,1.886-14.442c0.099-7.842-0.868-15.438-4.233-22.62
				c-2.366-5.052-6.134-9.276-10.4-12.796c-0.229-0.19-6.203,4.849-6.773,5.294c-2.116,1.655-1.26,4.346-1.26,6.976
				c0,13.346,0,26.692,0,40.038c0,3.028-6.464,6.099-8.661,7.751c-2.92,2.196-5.84,4.393-8.76,6.589
				c-1.211,0.91-4.289,4.221-5.132,1.554c0,0.417,0,0.833,0,1.25c0.861-2.458,2.987-4.877,4.379-7.041
				c1.325-2.059,4.416-5.023,4.416-7.521c0-4.701,0-9.402,0-14.104c0-12.387,0-24.774,0-37.161c0-0.059,0.048-0.594-0.006-0.625
				c-3.446-1.986-9.564-4.007-11.777-7.33c0,0.417,0,0.833,0,1.25c1.282-3.116,6.357-5.954,9.094-8.057
				c1.358-1.043,1.646-0.484,3.102,0.371c3.741,2.2,7.424,4.503,11.118,6.78c0.919,0.29,1.614,0.824,2.087,1.603
				c0.049,0.352,0.098,0.703,0.146,1.055c0.98-0.739,1.962-1.477,2.944-2.213c1.959-1.472,3.923-2.936,5.892-4.395
				c1.783-1.321,3.557-2.805,5.49-3.906c1.563-0.89,8.904,7.92,9.973,9.169c6.939,8.113,10.518,18.266,10.679,28.884
				c0.001,0.063,0.01-0.83,0.006-1.079c-0.173-11.432-4.264-21.549-11.678-30.216c-1.566-1.831-7.272-9.181-9.745-7.52
				c-4.135,2.777-8.066,5.896-12.047,8.887c-2.493,1.873-0.983,0.989-2.1-0.501c-0.82-1.095-3.459-2.133-4.649-2.866
				c-2.219-1.365-4.441-2.723-6.671-4.068c-2.349-1.417-2.903-2.497-5.087-0.819c-1.96,1.506-12.262,7.297-7.288,10.163
				c2.921,1.684,5.842,3.367,8.763,5.05c1.991,1.147,1.743-0.127,1.743,2.276c0,6.292,0,12.584,0,18.877c0,7.645,0,15.29,0,22.935
				c0,2.164,0,4.328,0,6.492c0,0.381,0,0.761,0,1.142c0,0.383-2.481,3.225-2.822,3.751c-0.978,1.506-1.95,3.017-2.92,4.528
				c-0.027,0.043-5.948,8.722-1.225,7.147c1.537-0.513,3.301-2.482,4.577-3.442c3.245-2.44,6.489-4.881,9.734-7.321
				c2.134-1.605,6.437-3.444,6.437-6.475c0-5.524,0-11.049,0-16.574c0-7.644,0-15.288,0-22.932c0-2.028,0-4.057,0-6.085
				c0-1.132-0.149,0.075,0.339-0.307c1.473-1.151,2.945-2.302,4.418-3.453c1.058-0.827,2.116-1.654,3.175-2.482
				c0.519-0.406,4.667,4.204,5.182,4.77c4.075,4.48,6.632,10.072,8.17,15.872c2.167,8.174,1.474,16.803-0.152,25.003
				c-0.678,3.42-1.673,6.771-2.736,10.087c-1.188,3.705-3.385,7.388-4.221,11.15c-0.082,0.371-0.016,0.848-0.002,1.228
				c0.119,3.278,3.578-1.049,4.058-1.611c1.861-2.188,3.513-4.509,5.126-6.884c7.002-10.311,11.43-22.206,11.622-34.722
				C245.146,87.452,245.138,86.56,245.137,86.622z"/>
		</g>
	</g>
</g>
<g>
	<g>
		<path fill="#EC632B" d="M58.354,139.607c0,0.235-1.7,1.619-5.098,4.152c0-0.234,0.023,0.668,0.07,2.709
			c0.047,1.643,0.047,2.933,0,3.871c-0.069,1.36-0.208,2.1-0.416,2.217l-7.459,4.243c3.679,1.431,6.562,3.551,8.648,6.363
			c2.203,2.93,3.305,6.327,3.305,10.194c0,7.711-5.051,14.156-15.152,19.336c-2.953,1.499-4.758,2.285-5.414,2.355h-0.352
			c-0.375,0.047-0.563-0.177-0.563-0.669c0-0.259,0.117-0.458,0.352-0.599c4.195-2.72,7.3-5.183,9.316-7.387
			c3.094-3.354,4.641-6.896,4.641-10.625c0-3.26-1.255-6.379-3.766-9.357s-5.396-4.761-8.657-5.348l-1.675,1.007v16.511
			c0,0.211-4.148,3.439-12.445,9.682c-0.118,0.093-0.258,0.141-0.422,0.141c-0.445,0-0.668-0.234-0.668-0.704
			c0-0.141,1.758-2.908,5.273-8.304v-30.817c-4.711-2.697-7.066-4.163-7.066-4.397c0-0.305,0.949-1.262,2.848-2.868
			s2.988-2.409,3.27-2.409l0.352,0.105c1.617,0.961,3.234,1.91,4.852,2.848c2.672,1.641,4.008,2.637,4.008,2.988v13.289l8.648-4.781
			c0,0.281-0.023-0.75-0.07-3.094c-0.047-1.852-0.047-3.305,0-4.359c0.07-1.523,0.246-2.332,0.527-2.426
			c8.179-3.047,12.34-4.57,12.48-4.57C58.144,138.904,58.354,139.139,58.354,139.607z"/>
		<path fill="#EC632B" d="M93.757,143.861c0,0.141-0.07,0.281-0.211,0.422c-3.916,3.871-5.967,5.807-6.155,5.807
			c-0.094,0-3.89-1.432-11.388-4.297c-4.313,4.617-7.009,8.989-8.086,13.115c1.758-2.555,2.754-3.832,2.988-3.832h18.879
			c0.445,0,0.668,0.223,0.668,0.668l-0.105,0.387c-2.977,4.523-4.594,6.785-4.852,6.785H67.46c0.141,4.758,2.859,8.777,8.156,12.059
			c3.141,1.945,7.898,3.891,14.273,5.836c0.328,0.094,0.492,0.305,0.492,0.633c0,0.164-1.465,2.332-4.395,6.504
			c-0.141,0.188-0.293,0.281-0.457,0.281c-0.141,0-0.223,0-0.246,0c-6.68-1.43-12.106-3.68-16.277-6.75
			c-5.367-3.938-8.051-8.859-8.051-14.766c0-4.688,2.285-10.336,6.855-16.945c4.804-6.984,9.398-10.57,13.781-10.758
			c0.047,0,3.949,1.383,11.707,4.148C93.604,143.252,93.757,143.486,93.757,143.861z"/>
		<path fill="#EC632B" d="M124.343,143.861c0,0.141-0.07,0.281-0.211,0.422c-3.916,3.871-5.968,5.807-6.155,5.807
			c-0.094,0-3.89-1.432-11.388-4.297c-4.313,4.617-7.009,8.989-8.086,13.115c1.758-2.555,2.754-3.832,2.988-3.832h18.879
			c0.444,0,0.668,0.223,0.668,0.668l-0.105,0.387c-2.977,4.523-4.594,6.785-4.852,6.785H98.046
			c0.141,4.758,2.859,8.777,8.156,12.059c3.141,1.945,7.898,3.891,14.274,5.836c0.327,0.094,0.492,0.305,0.492,0.633
			c0,0.164-1.466,2.332-4.395,6.504c-0.141,0.188-0.293,0.281-0.457,0.281c-0.141,0-0.223,0-0.246,0
			c-6.68-1.43-12.106-3.68-16.277-6.75c-5.367-3.938-8.051-8.859-8.051-14.766c0-4.688,2.285-10.336,6.855-16.945
			c4.804-6.984,9.398-10.57,13.781-10.758c0.047,0,3.949,1.383,11.708,4.148C124.19,143.252,124.343,143.486,124.343,143.861z"/>
		<path fill="#EC632B" d="M162.383,153.916c0,3.422-2.18,6.504-6.539,9.246c-3.352,2.086-7.125,3.574-11.32,4.465l-0.141,0.035
			c-0.469,0-0.703-0.234-0.703-0.703c0-0.258,0.164-0.469,0.494-0.633c0.563-0.211,1.387-0.539,2.469-0.984
			c5.5-2.461,8.252-5.367,8.252-8.719c0-3.281-2.773-6.82-8.32-10.617l-4.512,2.988v29.461c0,0.234-0.094,0.422-0.281,0.563
			l-12.094,9.07c-0.117,0.094-0.258,0.141-0.422,0.141c-0.446,0-0.668-0.234-0.668-0.703c0-0.117,1.747-2.859,5.239-8.227v-30.691
			l-6.68-3.832c-0.234-0.141-0.352-0.316-0.352-0.527c0-0.258,0.082-0.457,0.246-0.598c3.727-3.094,5.672-4.641,5.836-4.641
			c0.141,0,3.059,1.746,8.754,5.238c5.695-3.492,8.602-5.238,8.719-5.238c0.141,0,0.27,0.035,0.387,0.105
			C158.504,144.318,162.383,149.252,162.383,153.916z"/>
		<path fill="#EC632B" d="M195.395,143.861c0,0.141-0.07,0.281-0.211,0.422c-3.916,3.871-5.967,5.807-6.154,5.807
			c-0.094,0-3.891-1.432-11.389-4.297c-4.313,4.617-7.008,8.989-8.086,13.115c1.758-2.555,2.754-3.832,2.988-3.832h18.879
			c0.445,0,0.668,0.223,0.668,0.668l-0.105,0.387c-2.977,4.523-4.594,6.785-4.852,6.785h-18.035
			c0.141,4.758,2.859,8.777,8.156,12.059c3.141,1.945,7.898,3.891,14.273,5.836c0.328,0.094,0.492,0.305,0.492,0.633
			c0,0.164-1.465,2.332-4.395,6.504c-0.141,0.188-0.293,0.281-0.457,0.281c-0.141,0-0.223,0-0.246,0
			c-6.68-1.43-12.105-3.68-16.277-6.75c-5.367-3.938-8.051-8.859-8.051-14.766c0-4.688,2.285-10.336,6.855-16.945
			c4.805-6.984,9.398-10.57,13.781-10.758c0.047,0,3.949,1.383,11.707,4.148C195.242,143.252,195.395,143.486,195.395,143.861z"/>
		<path fill="#EC632B" d="M236.141,176.732c0,5.836-3.398,11.461-10.195,16.875c-0.773,0.633-1.98,1.499-3.621,2.602
			c-0.117,0.047-0.234,0.07-0.352,0.07c-0.469,0-0.703-0.224-0.703-0.668c0-0.188,0.07-0.352,0.211-0.492
			c5.438-5.836,8.156-11.051,8.156-15.645c0-3.633-1.465-6.844-4.395-9.633c-2.859-2.695-6.117-4.102-9.773-4.219
			c-0.469,0-0.703-0.234-0.703-0.703c0-0.305,0.164-0.516,0.494-0.633c3.643-1.172,6.016-2.051,7.121-2.637
			c2.822-1.523,4.232-3.422,4.232-5.695c0-2.906-2.727-6.223-8.178-9.949l-5.287,3.234v29.215c0,0.234-0.094,0.422-0.281,0.563
			l-12.094,9.07c-0.117,0.094-0.258,0.141-0.422,0.141c-0.445,0-0.668-0.234-0.668-0.703c0-0.117,1.746-2.859,5.238-8.227v-30.656
			c-4.688-2.695-7.031-4.16-7.031-4.395c0-0.258,0.082-0.445,0.246-0.563c3.727-3.117,5.672-4.676,5.836-4.676
			c0.141,0,1.611,0.85,4.412,2.549s4.283,2.631,4.447,2.795c6.164-3.563,9.305-5.344,9.422-5.344c0.141,0,0.27,0.047,0.387,0.141
			c7.641,5.109,11.461,9.832,11.461,14.168c0,3.586-2.625,6.609-7.875,9.07C232.836,164.592,236.141,169.373,236.141,176.732z"/>
	</g>
	<g>
		<path fill="none" stroke="#EE4036" d="M58.354,139.607c0,0.235-1.7,1.619-5.098,4.152c0-0.234,0.023,0.668,0.07,2.709
			c0.047,1.643,0.047,2.933,0,3.871c-0.069,1.36-0.208,2.1-0.416,2.217l-7.459,4.243c3.679,1.431,6.562,3.551,8.648,6.363
			c2.203,2.93,3.305,6.327,3.305,10.194c0,7.711-5.051,14.156-15.152,19.336c-2.953,1.499-4.758,2.285-5.414,2.355h-0.352
			c-0.375,0.047-0.563-0.177-0.563-0.669c0-0.259,0.117-0.458,0.352-0.599c4.195-2.72,7.3-5.183,9.316-7.387
			c3.094-3.354,4.641-6.896,4.641-10.625c0-3.26-1.255-6.379-3.766-9.357s-5.396-4.761-8.657-5.348l-1.675,1.007v16.511
			c0,0.211-4.148,3.439-12.445,9.682c-0.118,0.093-0.258,0.141-0.422,0.141c-0.445,0-0.668-0.234-0.668-0.704
			c0-0.141,1.758-2.908,5.273-8.304v-30.817c-4.711-2.697-7.066-4.163-7.066-4.397c0-0.305,0.949-1.262,2.848-2.868
			s2.988-2.409,3.27-2.409l0.352,0.105c1.617,0.961,3.234,1.91,4.852,2.848c2.672,1.641,4.008,2.637,4.008,2.988v13.289l8.648-4.781
			c0,0.281-0.023-0.75-0.07-3.094c-0.047-1.852-0.047-3.305,0-4.359c0.07-1.523,0.246-2.332,0.527-2.426
			c8.179-3.047,12.34-4.57,12.48-4.57C58.144,138.904,58.354,139.139,58.354,139.607z"/>
		<path fill="none" stroke="#EE4036" d="M93.757,143.861c0,0.141-0.07,0.281-0.211,0.422c-3.916,3.871-5.967,5.807-6.155,5.807
			c-0.094,0-3.89-1.432-11.388-4.297c-4.313,4.617-7.009,8.989-8.086,13.115c1.758-2.555,2.754-3.832,2.988-3.832h18.879
			c0.445,0,0.668,0.223,0.668,0.668l-0.105,0.387c-2.977,4.523-4.594,6.785-4.852,6.785H67.46c0.141,4.758,2.859,8.777,8.156,12.059
			c3.141,1.945,7.898,3.891,14.273,5.836c0.328,0.094,0.492,0.305,0.492,0.633c0,0.164-1.465,2.332-4.395,6.504
			c-0.141,0.188-0.293,0.281-0.457,0.281c-0.141,0-0.223,0-0.246,0c-6.68-1.43-12.106-3.68-16.277-6.75
			c-5.367-3.938-8.051-8.859-8.051-14.766c0-4.688,2.285-10.336,6.855-16.945c4.804-6.984,9.398-10.57,13.781-10.758
			c0.047,0,3.949,1.383,11.707,4.148C93.604,143.252,93.757,143.486,93.757,143.861z"/>
		<path fill="none" stroke="#EE4036" d="M124.343,143.861c0,0.141-0.07,0.281-0.211,0.422c-3.916,3.871-5.968,5.807-6.155,5.807
			c-0.094,0-3.89-1.432-11.388-4.297c-4.313,4.617-7.009,8.989-8.086,13.115c1.758-2.555,2.754-3.832,2.988-3.832h18.879
			c0.444,0,0.668,0.223,0.668,0.668l-0.105,0.387c-2.977,4.523-4.594,6.785-4.852,6.785H98.046
			c0.141,4.758,2.859,8.777,8.156,12.059c3.141,1.945,7.898,3.891,14.274,5.836c0.327,0.094,0.492,0.305,0.492,0.633
			c0,0.164-1.466,2.332-4.395,6.504c-0.141,0.188-0.293,0.281-0.457,0.281c-0.141,0-0.223,0-0.246,0
			c-6.68-1.43-12.106-3.68-16.277-6.75c-5.367-3.938-8.051-8.859-8.051-14.766c0-4.688,2.285-10.336,6.855-16.945
			c4.804-6.984,9.398-10.57,13.781-10.758c0.047,0,3.949,1.383,11.708,4.148C124.19,143.252,124.343,143.486,124.343,143.861z"/>
		<path fill="none" stroke="#EE4036" d="M162.383,153.916c0,3.422-2.18,6.504-6.539,9.246c-3.352,2.086-7.125,3.574-11.32,4.465
			l-0.141,0.035c-0.469,0-0.703-0.234-0.703-0.703c0-0.258,0.164-0.469,0.494-0.633c0.563-0.211,1.387-0.539,2.469-0.984
			c5.5-2.461,8.252-5.367,8.252-8.719c0-3.281-2.773-6.82-8.32-10.617l-4.512,2.988v29.461c0,0.234-0.094,0.422-0.281,0.563
			l-12.094,9.07c-0.117,0.094-0.258,0.141-0.422,0.141c-0.446,0-0.668-0.234-0.668-0.703c0-0.117,1.747-2.859,5.239-8.227v-30.691
			l-6.68-3.832c-0.234-0.141-0.352-0.316-0.352-0.527c0-0.258,0.082-0.457,0.246-0.598c3.727-3.094,5.672-4.641,5.836-4.641
			c0.141,0,3.059,1.746,8.754,5.238c5.695-3.492,8.602-5.238,8.719-5.238c0.141,0,0.27,0.035,0.387,0.105
			C158.504,144.318,162.383,149.252,162.383,153.916z"/>
		<path fill="none" stroke="#EE4036" d="M195.395,143.861c0,0.141-0.07,0.281-0.211,0.422c-3.916,3.871-5.967,5.807-6.154,5.807
			c-0.094,0-3.891-1.432-11.389-4.297c-4.313,4.617-7.008,8.989-8.086,13.115c1.758-2.555,2.754-3.832,2.988-3.832h18.879
			c0.445,0,0.668,0.223,0.668,0.668l-0.105,0.387c-2.977,4.523-4.594,6.785-4.852,6.785h-18.035
			c0.141,4.758,2.859,8.777,8.156,12.059c3.141,1.945,7.898,3.891,14.273,5.836c0.328,0.094,0.492,0.305,0.492,0.633
			c0,0.164-1.465,2.332-4.395,6.504c-0.141,0.188-0.293,0.281-0.457,0.281c-0.141,0-0.223,0-0.246,0
			c-6.68-1.43-12.105-3.68-16.277-6.75c-5.367-3.938-8.051-8.859-8.051-14.766c0-4.688,2.285-10.336,6.855-16.945
			c4.805-6.984,9.398-10.57,13.781-10.758c0.047,0,3.949,1.383,11.707,4.148C195.242,143.252,195.395,143.486,195.395,143.861z"/>
		<path fill="none" stroke="#EE4036" d="M236.141,176.732c0,5.836-3.398,11.461-10.195,16.875c-0.773,0.633-1.98,1.499-3.621,2.602
			c-0.117,0.047-0.234,0.07-0.352,0.07c-0.469,0-0.703-0.224-0.703-0.668c0-0.188,0.07-0.352,0.211-0.492
			c5.438-5.836,8.156-11.051,8.156-15.645c0-3.633-1.465-6.844-4.395-9.633c-2.859-2.695-6.117-4.102-9.773-4.219
			c-0.469,0-0.703-0.234-0.703-0.703c0-0.305,0.164-0.516,0.494-0.633c3.643-1.172,6.016-2.051,7.121-2.637
			c2.822-1.523,4.232-3.422,4.232-5.695c0-2.906-2.727-6.223-8.178-9.949l-5.287,3.234v29.215c0,0.234-0.094,0.422-0.281,0.563
			l-12.094,9.07c-0.117,0.094-0.258,0.141-0.422,0.141c-0.445,0-0.668-0.234-0.668-0.703c0-0.117,1.746-2.859,5.238-8.227v-30.656
			c-4.688-2.695-7.031-4.16-7.031-4.395c0-0.258,0.082-0.445,0.246-0.563c3.727-3.117,5.672-4.676,5.836-4.676
			c0.141,0,1.611,0.85,4.412,2.549s4.283,2.631,4.447,2.795c6.164-3.563,9.305-5.344,9.422-5.344c0.141,0,0.27,0.047,0.387,0.141
			c7.641,5.109,11.461,9.832,11.461,14.168c0,3.586-2.625,6.609-7.875,9.07C232.836,164.592,236.141,169.373,236.141,176.732z"/>
	</g>
	<g opacity="0.58">
		<g>
			<path d="M58.354,138.982c-1.357,2.232-5.203,2.522-5.099,5.38c0.099,2.723,1.331,6.617-1.352,8.143
				c-2.15,1.224-4.3,2.446-6.451,3.67c-0.05,0.028-0.035,1.235,0,1.25c9.647,4.138,15.02,14.15,9.528,23.953
				c-2.207,3.939-6.102,6.769-9.849,9.099c-1.679,1.044-7.488,5.323-9.207,3.278c0,0.417,0,0.833,0,1.25
				c1.064-1.812,4.125-3.176,5.827-4.485c2.263-1.741,4.185-3.753,5.871-6.051c1.854-2.525,2.617-5.616,2.617-8.699
				c0-3.245-1.007-5.977-2.773-8.697c-1.688-2.601-4.2-4.512-6.953-5.837c-0.48-0.231-4.317-1.486-4.379,0.233
				c-0.169,4.64-0.005,9.313-0.005,13.955c0,3.143,0.413,2.315-1.744,4.043c-1.726,1.383-3.492,2.715-5.25,4.056
				c-1.489,1.135-5.001,5.169-6.535,3.553c0,0.417,0,0.833,0,1.25c1.172-2.69,5.271-5.939,5.279-8.763c0.007-2.526,0-5.053,0-7.579
				c0-7.802,0-15.603,0-23.404c0-0.059,0.047-0.595-0.006-0.625c-1.954-1.124-5.708-2.472-7.066-4.397c0,0.417,0,0.833,0,1.25
				c0.62-1.222,4.881-5.648,6.293-5.225c1.134,0.34,9.029,4.829,9.029,5.36c0,4.397,0,8.795,0,13.192
				c0,0.051,0.045,0.604,0.006,0.625c2.883-1.594,5.766-3.188,8.648-4.781c0.099-0.055,0.019-1.1,0-1.25
				c-0.306-2.448-0.948-6.733,0.457-8.629c0.919-1.24,5.672-2.107,7.226-2.682c1.576-0.582,4.617-2.598,5.888-1.186
				C58.152,140.007,58.566,139.217,58.354,138.982c-1.176-1.307-3.313,0.239-4.812,0.789c-3.302,1.212-8.506,1.572-8.829,5.504
				c-0.228,2.78-0.27,5.983,0.07,8.703c0-0.417,0-0.833,0-1.25c-2.846,1.573-5.692,3.146-8.538,4.721
				c-0.255,0.141-0.104,1.043-0.104-0.122c0-0.979,0-1.958,0-2.937c0-2.489,0-4.979,0-7.469c0-2.149,0.361-2.681-1.449-4.03
				c-2.149-1.603-5.212-3.846-7.768-4.612c-1.212-0.363-5.573,4.205-6.117,5.277c-0.077,0.151-0.095,1.115,0,1.25
				c1.095,1.554,4.011,2.628,5.583,3.544c1.817,1.059,1.477,0.228,1.477,2.604c0,4.508,0,9.017,0,13.525c0,4.356,0,8.713,0,13.07
				c0,3.658-3.798,6.155-5.267,9.525c-0.063,0.144-0.098,1.146,0,1.25c1.554,1.638,7.795-4.511,9.597-5.898
				c0.571-0.439,3.909-2.392,3.939-3.242c0.137-3.758,0.005-7.542,0.005-11.302c0-1.364,0-2.729,0-4.095
				c0-1.399-0.03-1.077,0.428-1.353c3.803-2.286,8.752,3.128,10.897,5.887c4.006,5.154,2.816,11.273-0.786,16.181
				c-1.349,1.837-3.18,3.335-4.929,4.767c-1.699,1.391-4.736,2.628-5.827,4.485c-0.073,0.125-0.088,1.145,0,1.25
				c2.117,2.518,10.936-4.324,12.957-5.809c4.67-3.43,7.901-8.264,8.485-14.066c0.867-8.6-4.121-15.612-11.915-18.955
				c0,0.417,0,0.833,0,1.25c2.814-1.601,7.769-2.855,7.876-6.482c0.076-2.565,0.222-5.267-0.072-7.808c0,0.417,0,0.833,0,1.25
				c1.522-1.143,4.074-2.469,5.098-4.152C58.542,139.924,58.172,139.282,58.354,138.982z"/>
		</g>
		<g>
			<path d="M93.757,143.236c-1.094,2.188-4.091,4.295-5.964,5.941c-0.723,0.636-2.137-0.343-2.897-0.628
				c-1.433-0.538-2.862-1.083-4.292-1.627c-2.42-0.921-3.938-2.487-5.845-0.377c-3.075,3.402-5.526,7.336-6.841,11.737
				c-0.095,0.317,0.179,0.993,0,1.25c0.788-1.129,1.923-3.832,3.553-3.832c2.152,0,4.305,0,6.458,0
				c2.828,0,10.431-1.426,12.524,0.668c0-0.417,0-0.833,0-1.25c-0.624,2.288-3.068,4.957-4.584,6.837
				c-0.675,0.837-3.021,0.335-3.949,0.335c-4.82,0-9.64,0-14.459,0c-0.009,0-0.01,1.129,0,1.25
				c0.441,5.517,3.687,9.103,8.156,12.059c1.83,1.211,3.913,2.066,5.924,2.918c2.36,0.999,7.326,1.602,8.842,3.551
				c0-0.417,0-0.833,0-1.25c-1.02,2.309-2.959,4.455-4.395,6.504c-1.097,1.565-9.613-2.405-11.113-3.059
				c-8.65-3.769-15.625-11.562-13.27-21.525c1.938-8.194,8.512-17.832,15.882-21.965c2.085-1.17,3.765-1.268,5.871-0.525
				c2.697,0.951,8.92,1.963,10.399,4.238C93.569,144.198,93.95,143.533,93.757,143.236c-1.547-2.381-8.181-3.456-11.026-4.459
				c-3.027-1.066-6.082,1.056-8.402,2.866c-6.743,5.264-13.29,15.868-13.377,24.627c-0.066,6.663,2.84,11.758,8.055,15.833
				c4.211,3.291,9.53,5.064,14.633,6.375c3.248,0.834,5.512-3.627,6.742-6.41c0.069-0.157,0.1-1.121,0-1.25
				c-1.3-1.672-5.335-2.214-7.366-2.967c-2.566-0.952-5.042-2.113-7.399-3.502c-4.545-2.678-7.731-6.738-8.156-12.059
				c0,0.417,0,0.833,0,1.25c4.548,0,9.095,0,13.643,0c1.057,0,3.59,0.493,4.528-0.084c1.645-1.011,4.367-5.425,4.821-7.088
				c0.046-0.171,0.113-1.138,0-1.25c-1.989-1.989-8.895-0.668-11.567-0.668c-2.334,0-4.667,0-7.001,0
				c-2.056,0-2.88,2.276-3.967,3.832c0,0.417,0,0.833,0,1.25c1.165-3.9,3.203-7.181,5.693-10.374
				c2.169-2.782,2.406-2.735,5.591-1.521c1.605,0.612,3.211,1.223,4.818,1.831c0.584,0.221,2.878,1.515,3.503,1.174
				c1.932-1.053,5.323-4.334,6.234-6.157C93.925,144.149,93.592,143.565,93.757,143.236z"/>
		</g>
		<g>
			<path d="M124.343,143.236c-1.094,2.188-4.092,4.295-5.965,5.941c-0.723,0.636-2.137-0.343-2.897-0.628
				c-1.433-0.538-2.862-1.083-4.292-1.627c-2.42-0.921-3.938-2.487-5.845-0.377c-3.075,3.402-5.526,7.336-6.841,11.737
				c-0.095,0.317,0.179,0.993,0,1.25c0.788-1.129,1.923-3.832,3.553-3.832c2.153,0,4.305,0,6.458,0
				c2.828,0,10.431-1.426,12.525,0.668c0-0.417,0-0.833,0-1.25c-0.624,2.288-3.069,4.957-4.584,6.837
				c-0.675,0.837-3.021,0.335-3.949,0.335c-4.82,0-9.64,0-14.459,0c-0.009,0-0.01,1.129,0,1.25
				c0.441,5.517,3.687,9.103,8.156,12.059c1.83,1.211,3.913,2.066,5.924,2.918c2.36,0.999,7.326,1.602,8.842,3.551
				c0-0.417,0-0.833,0-1.25c-1.021,2.309-2.96,4.455-4.395,6.504c-1.097,1.565-9.613-2.405-11.113-3.059
				c-8.65-3.769-15.625-11.562-13.27-21.525c1.938-8.194,8.512-17.832,15.882-21.965c2.085-1.17,3.765-1.268,5.871-0.525
				c2.697,0.951,8.92,1.963,10.399,4.238C124.156,144.198,124.536,143.533,124.343,143.236c-1.547-2.381-8.181-3.456-11.026-4.459
				c-3.027-1.066-6.082,1.056-8.402,2.866c-6.743,5.264-13.29,15.868-13.377,24.627c-0.067,6.663,2.84,11.758,8.055,15.833
				c4.211,3.291,9.53,5.064,14.633,6.375c3.248,0.834,5.512-3.627,6.742-6.41c0.069-0.157,0.1-1.121,0-1.25
				c-1.3-1.672-5.335-2.214-7.367-2.967c-2.566-0.952-5.042-2.113-7.399-3.502c-4.545-2.678-7.731-6.738-8.156-12.059
				c0,0.417,0,0.833,0,1.25c4.548,0,9.095,0,13.643,0c1.057,0,3.59,0.493,4.528-0.084c1.645-1.011,4.368-5.425,4.821-7.088
				c0.046-0.171,0.113-1.138,0-1.25c-1.989-1.989-8.895-0.668-11.567-0.668c-2.333,0-4.667,0-7.001,0
				c-2.056,0-2.88,2.276-3.967,3.832c0,0.417,0,0.833,0,1.25c1.165-3.9,3.203-7.181,5.693-10.374
				c2.169-2.782,2.406-2.735,5.591-1.521c1.605,0.612,3.211,1.223,4.818,1.831c0.584,0.221,2.878,1.515,3.503,1.174
				c1.932-1.053,5.323-4.334,6.235-6.157C124.512,144.149,124.179,143.565,124.343,143.236z"/>
		</g>
		<g>
			<path d="M162.381,153.313c-0.346,4.838-3.903,7.668-7.813,9.978c-2.119,1.252-8.911,5.02-10.888,3.043c0,0.417,0,0.833,0,1.25
				c1.656-2.122,5.956-3.01,8.243-4.784c1.752-1.357,2.937-3.409,2.975-5.637c0.037-2.161-0.517-3.944-1.722-5.799
				c-0.671-1.032-5.744-6.552-6.756-5.881c-1.453,0.962-2.905,1.924-4.357,2.886c-0.341,0.226-0.006,3.423-0.006,3.688
				c0,8.322,0,16.645,0,24.966c0,2.162-2.573,3.092-4.382,4.449c-1.576,1.182-7.472,7.117-9.078,5.428c0,0.417,0,0.833,0,1.25
				c1.205-2.619,5.237-5.915,5.245-8.686c0.007-2.517,0-5.032,0-7.549c0-7.77,0-15.539,0-23.309c0-0.059,0.047-0.595-0.006-0.625
				c-2.06-1.182-5.708-2.374-7.032-4.359c0,0.417,0,0.833,0,1.25c0.35-0.849,5.223-5.708,6.435-5.065
				c1.491,0.791,2.919,1.724,4.361,2.598c1.35,0.818,2.694,1.644,4.04,2.468c0.249,0.152,3.619-2.213,4.037-2.468
				c3.93-2.395,4.066-3.473,7.965-0.599c4.144,3.057,8.438,7.277,8.738,12.712c-0.016-0.294,0.024-0.829,0.004-1.205
				c-0.372-6.739-6.553-11.307-11.639-14.823c-0.772-0.534-3.43,1.672-3.999,2.016c-1.706,1.032-3.406,2.075-5.106,3.117
				c-0.357,0.219-4.514-2.755-5.111-3.117c-0.537-0.325-3.116-2.385-3.787-2.049c-1.754,0.877-5.253,3.502-5.938,5.166
				c-0.478,1.16,0.562,1.898,1.396,2.376c1.834,1.053,3.669,2.105,5.504,3.158c0.046,0.026,0.126-0.952,0.126,0.079
				c0,0.579,0,1.157,0,1.736c0,4.49,0,8.98,0,13.47c0,4.339,0,8.678,0,13.017c0,3.609-3.717,6.145-5.233,9.441
				c-0.064,0.14-0.096,1.149,0,1.25c1.702,1.79,11.052-6.909,13.118-8.458c1.534-1.15,0.354-8.286,0.354-9.762
				c0-6.643,0-13.284,0-19.926c0-1.418-0.148-0.292,0.563-0.763c1.263-0.836,2.525-1.673,3.788-2.509
				c0.889-0.589,5.274,4.123,5.999,4.915c1.444,1.58,2.313,3.479,2.476,5.6c0-0.417,0-0.833,0-1.25
				c-0.198,2.385-1.26,3.933-2.972,5.552c-2.251,2.13-6.474,2.518-8.243,4.784c-0.07,0.09-0.075,1.175,0,1.25
				c2.228,2.228,9.857-2.434,12.164-3.797c3.498-2.066,6.244-5.126,6.541-9.269C162.411,154.144,162.36,153.606,162.381,153.313z"/>
		</g>
		<g>
			<path d="M195.395,143.236c-1.094,2.188-4.092,4.295-5.964,5.941c-0.723,0.636-2.138-0.343-2.897-0.628
				c-1.433-0.538-2.862-1.083-4.293-1.627c-2.42-0.921-3.938-2.487-5.845-0.377c-3.075,3.402-5.526,7.336-6.841,11.737
				c-0.095,0.317,0.18,0.993,0,1.25c0.788-1.129,1.923-3.832,3.553-3.832c2.152,0,4.306,0,6.458,0
				c2.828,0,10.431-1.426,12.524,0.668c0-0.417,0-0.833,0-1.25c-0.624,2.288-3.068,4.957-4.584,6.837
				c-0.675,0.837-3.021,0.335-3.948,0.335c-4.82,0-9.64,0-14.46,0c-0.01,0-0.01,1.129,0,1.25c0.441,5.517,3.687,9.103,8.156,12.059
				c1.83,1.211,3.912,2.066,5.924,2.918c2.36,0.999,7.326,1.602,8.842,3.551c0-0.417,0-0.833,0-1.25
				c-1.02,2.309-2.96,4.455-4.395,6.504c-1.097,1.565-9.613-2.405-11.112-3.059c-8.65-3.769-15.625-11.562-13.27-21.525
				c1.937-8.194,8.512-17.831,15.882-21.965c2.085-1.17,3.765-1.268,5.87-0.525c2.697,0.951,8.921,1.963,10.399,4.238
				C195.207,144.198,195.588,143.533,195.395,143.236c-1.548-2.381-8.181-3.456-11.025-4.459c-3.027-1.066-6.082,1.056-8.402,2.866
				c-6.743,5.264-13.29,15.868-13.378,24.627c-0.066,6.663,2.841,11.758,8.056,15.833c4.211,3.291,9.53,5.065,14.634,6.375
				c3.247,0.834,5.512-3.627,6.741-6.41c0.069-0.157,0.101-1.121,0-1.25c-1.3-1.672-5.335-2.214-7.366-2.967
				c-2.565-0.952-5.042-2.113-7.399-3.502c-4.545-2.678-7.73-6.738-8.156-12.059c0,0.417,0,0.833,0,1.25c4.548,0,9.096,0,13.643,0
				c1.058,0,3.59,0.493,4.529-0.084c1.644-1.011,4.367-5.425,4.82-7.088c0.047-0.171,0.112-1.138,0-1.25
				c-1.989-1.989-8.895-0.668-11.567-0.668c-2.333,0-4.667,0-7.001,0c-2.057,0-2.881,2.276-3.967,3.832c0,0.417,0,0.833,0,1.25
				c1.165-3.9,3.202-7.181,5.692-10.374c2.169-2.782,2.406-2.735,5.592-1.521c1.604,0.612,3.211,1.223,4.818,1.831
				c0.584,0.221,2.878,1.515,3.504,1.174c1.931-1.053,5.321-4.334,6.233-6.157C195.563,144.149,195.229,143.565,195.395,143.236z"/>
		</g>
		<g>
			<path d="M236.139,176.13c-0.199,4.772-2.195,8.546-5.2,12.16c-1.367,1.646-7.705,8.563-9.669,6.696c0,0.417,0,0.833,0,1.25
				c0.915-2.135,3.37-4.171,4.742-6.121c1.391-1.977,2.382-4.163,3.115-6.454c0.449-1.405,0.52-2.891,0.516-4.353
				c-0.007-2.454-0.583-4.593-1.723-6.776c-1.161-2.225-3.225-3.895-5.227-5.31c-2.278-1.612-6.2-1.2-7.928-2.928
				c0,0.417,0,0.833,0,1.25c1.401-1.794,5.461-2.23,7.615-3.27c2.288-1.104,4.19-3.146,4.235-5.78
				c0.039-2.249-0.667-3.988-2.048-5.832c-0.986-1.317-5.185-5.862-6.683-4.946c-1.579,0.967-3.158,1.933-4.737,2.898
				c-0.334,0.204-0.006,3.541-0.006,3.792c0,8.334,0,16.668,0,25.002c0,1.827-3.643,3.509-5.146,4.637
				c-1.514,1.135-6.738,6.513-8.313,4.854c0,0.417,0,0.833,0,1.25c1.384-3.01,5.244-5.876,5.244-9.226c0-4.651,0-9.304,0-13.955
				c0-5.106,0-10.213,0-15.319c0-3.801-5.086-3.247-7.037-6.027c0,0.417,0,0.833,0,1.25c0.784-1.791,3.585-3.345,5.146-4.581
				c1.436-1.137,2.333,0.087,3.827,0.974c1.996,1.187,4.1,2.326,5.968,3.713c0.47,0.349,7.061-4.056,8.095-4.637
				c3.493-1.966,9.079,5.179,11.069,7.813c4.609,6.101-0.313,10.854-5.77,13.608c-0.048,0.024-0.029,1.239,0,1.25
				c6.619,2.461,9.698,7.328,9.912,14.321c-0.009-0.295,0.016-0.828,0.004-1.205c-0.214-6.97-3.28-11.899-9.916-14.366
				c0,0.417,0,0.833,0,1.25c12.963-6.542,7.482-16.407-2.007-23.399c-2.546-1.876-3.264-0.548-5.862,0.935
				c-1.846,1.053-3.686,2.117-5.525,3.18c-0.262,0.151-4.197-2.643-4.447-2.795c-2.554-1.556-3.626-3.255-5.994-1.38
				c-1.231,0.975-4.496,2.708-4.506,4.379c-0.001,0.19-0.106,0.781,0.006,0.94c0.771,1.099,7.025,3.729,7.025,3.813
				c0,3.775,0,7.551,0,11.327c0,5.408,0,10.816,0,16.225c0,2.127,0.077,2.327-0.989,3.968c-1.401,2.155-3.164,4.349-4.243,6.695
				c-0.064,0.14-0.096,1.149,0,1.25c1.697,1.786,10.897-6.793,12.925-8.314c1.717-1.287,0.546-7.576,0.546-9.252
				c0-6.766,0-13.532,0-20.298c0-1.222,2.803-2.14,4.731-3.319c2.696-1.648,8.486,7.006,8.728,9.613c0-0.417,0-0.833,0-1.25
				c-0.3,2.821-1.896,4.263-4.232,5.695c-2.176,1.334-6.088,1.313-7.615,3.27c-0.07,0.09-0.075,1.175,0,1.25
				c1.566,1.566,5.715,1.679,7.928,2.928c2.97,1.676,5.105,4.61,6.325,7.718c1.347,3.43,0.064,6.939-1.421,10.016
				c-1.558,3.228-4.979,5.633-6.328,8.78c-0.06,0.138-0.096,1.159,0,1.25c2.184,2.074,9.185-6.112,10.658-7.886
				c2.615-3.146,4.045-6.957,4.215-11.016C236.158,176.959,236.127,176.424,236.139,176.13z"/>
		</g>
	</g>
</g>
</svg>
